<?xml version="1.0" standalone="no"?>
<!DOCTYPE svg PUBLIC "-//W3C//DTD SVG 20010904//EN"
 "http://www.w3.org/TR/2001/REC-SVG-20010904/DTD/svg10.dtd">
<svg version="1.0" xmlns="http://www.w3.org/2000/svg"
 width="512.000000pt" height="512.000000pt" viewBox="0 0 512.000000 512.000000"
 preserveAspectRatio="xMidYMid meet">
<metadata>
Created by potrace 1.14, written by Peter Selinger 2001-2017
</metadata>
<g transform="translate(0.000000,512.000000) scale(0.100000,-0.100000)"
fill="#000000" stroke="none">
<path d="M2527 4144 c-1 -1 -56 -4 -122 -8 -229 -11 -490 -62 -691 -133 l-81
-29 -49 34 c-204 140 -477 150 -678 25 -66 -41 -145 -121 -184 -185 -99 -166
-107 -377 -21 -550 33 -66 35 -80 14 -98 -9 -7 -14 -19 -11 -26 3 -8 0 -11
-10 -7 -7 3 -14 0 -14 -7 0 -7 -10 -25 -22 -40 -13 -15 -30 -37 -38 -50 -8
-12 -20 -28 -27 -35 -7 -7 -9 -15 -6 -19 4 -3 2 -6 -4 -6 -8 0 -137 -173 -142
-192 -1 -4 -16 -21 -32 -39 -16 -18 -28 -38 -25 -45 3 -7 0 -16 -6 -20 -7 -5
-8 -2 -4 7 6 12 -7 -3 -42 -46 -45 -55 -81 -119 -71 -125 8 -6 8 -9 0 -14 -9
-6 -6 -51 4 -64 1 -2 24 2 51 9 54 13 87 36 80 55 -3 7 0 11 7 8 7 -2 22 11
34 28 13 18 35 47 50 65 16 17 39 46 53 64 50 63 85 104 108 122 12 10 19 23
16 29 -4 6 -3 8 3 5 15 -9 67 49 58 64 -6 8 -4 10 5 4 8 -5 35 16 80 63 37 39
66 72 64 75 -2 2 3 4 11 4 11 0 15 -13 15 -50 0 -197 107 -424 277 -589 99
-97 119 -113 226 -182 290 -189 695 -296 1103 -291 125 2 115 8 117 -65 0 -19
-7 -50 -17 -69 -15 -28 -16 -35 -4 -43 10 -8 9 -9 -4 -4 -20 6 -34 -10 -16
-17 10 -4 10 -6 0 -6 -11 -1 -39 -54 -30 -57 2 -1 -6 -12 -17 -24 -11 -12 -18
-23 -16 -24 2 0 -12 -34 -32 -75 -20 -41 -35 -76 -32 -79 2 -2 -3 -11 -11 -19
-8 -9 -13 -22 -10 -30 3 -8 2 -12 -2 -9 -9 5 -48 -73 -44 -86 1 -5 -2 -8 -8
-8 -6 0 -9 -3 -8 -8 1 -4 -6 -22 -15 -40 -10 -18 -15 -38 -11 -44 4 -6 3 -8
-3 -5 -6 4 -16 -7 -23 -23 -10 -24 -10 -33 1 -48 13 -15 12 -16 -3 -4 -15 12
-19 9 -34 -25 -10 -21 -18 -42 -18 -48 -1 -5 -3 -12 -6 -15 -6 -5 -73 -140
-75 -150 0 -3 -6 -15 -13 -26 -6 -12 -8 -25 -4 -29 4 -3 2 -6 -3 -5 -29 6 -47
-1 -41 -16 5 -14 4 -15 -9 -4 -14 12 -19 7 -16 -13 1 -5 -3 -6 -9 -2 -13 8
-52 -4 -45 -15 2 -4 -8 -8 -23 -8 -15 0 -38 -2 -52 -6 -13 -3 -42 -8 -65 -11
-93 -13 -145 -27 -139 -37 4 -6 2 -8 -4 -4 -6 3 -31 -4 -57 -16 -59 -29 -58
-53 3 -53 23 0 42 2 42 5 0 4 16 4 36 2 29 -4 35 -2 28 9 -6 11 -5 12 7 2 12
-10 18 -10 27 -1 9 9 12 9 12 -1 0 -7 4 -10 9 -7 5 4 51 9 103 12 106 6 113 7
151 22 17 7 25 16 21 24 -4 7 -3 8 4 4 18 -11 71 24 65 43 -3 12 -2 12 7 -2 6
-10 16 -14 23 -10 9 5 9 3 0 -8 -21 -27 6 -55 57 -58 25 -2 48 -5 52 -8 5 -2
8 5 8 16 0 12 -5 21 -11 21 -5 0 -8 4 -5 9 3 5 1 34 -6 66 -9 48 -9 62 6 91 9
20 13 41 10 47 -4 7 -3 9 1 4 10 -8 66 107 61 125 -1 7 -1 9 2 4 2 -5 15 13
28 40 12 26 20 52 16 58 -10 17 -11 37 -1 30 5 -3 7 -10 4 -15 -4 -5 -2 -9 4
-9 9 0 22 27 27 58 1 8 10 22 18 31 9 10 16 21 16 24 0 8 27 69 77 175 18 40
31 78 27 84 -4 7 -3 8 4 4 7 -4 12 -3 12 3 0 6 16 43 35 82 19 39 32 75 30 79
-3 4 2 11 11 14 11 4 15 14 12 31 -3 14 -1 23 6 22 7 -1 11 26 11 80 0 82 0
83 28 89 34 7 34 7 42 -36 3 -19 10 -36 15 -38 5 -2 6 -10 3 -18 -3 -8 2 -17
12 -20 11 -5 13 -9 5 -14 -13 -8 6 -100 24 -112 7 -5 7 -8 -2 -8 -9 0 -10 -5
-4 -17 5 -10 17 -53 27 -96 14 -64 21 -77 34 -73 14 5 14 5 1 -6 -16 -14 -18
-46 -5 -68 5 -9 4 -11 -3 -6 -8 5 -12 -5 -13 -31 0 -21 -2 -62 -5 -92 -3 -33
0 -59 7 -68 7 -8 8 -13 3 -11 -5 2 -10 -1 -11 -6 -1 -5 -6 -12 -11 -15 -5 -3
-17 -30 -27 -60 -9 -29 -26 -60 -36 -69 -10 -9 -15 -20 -12 -26 3 -6 3 -8 -2
-4 -10 10 -67 -31 -60 -43 4 -5 0 -6 -8 -3 -8 3 -18 1 -22 -5 -3 -6 2 -14 12
-18 10 -4 27 -15 38 -25 11 -11 21 -14 23 -8 2 5 9 7 15 3 6 -4 8 0 4 10 -4
10 -2 14 7 11 21 -8 83 58 113 121 27 58 42 70 60 51 5 -5 2 -6 -5 -1 -10 5
-13 0 -11 -22 2 -21 -6 -42 -29 -73 -26 -36 -29 -46 -19 -59 10 -14 10 -14 -4
-3 -14 10 -19 8 -33 -12 -18 -28 -20 -37 -8 -35 4 1 9 0 12 -1 40 -15 85 -16
85 -2 0 7 5 16 10 20 6 4 28 34 50 67 l41 60 -3 128 c-1 82 1 126 8 122 5 -4
7 -10 4 -15 -2 -4 10 -21 29 -36 86 -74 162 -142 195 -175 35 -35 37 -36 61
-20 14 8 28 20 32 25 9 13 -11 38 -23 30 -5 -3 -8 0 -7 8 2 7 -3 12 -10 10 -6
-1 -11 2 -10 6 2 5 -21 32 -51 61 -41 40 -56 49 -63 39 -8 -10 -9 -9 -5 3 4
12 -23 44 -83 102 -49 47 -90 84 -92 84 -2 -1 -2 0 -1 2 1 2 -6 16 -16 30 -16
24 -36 85 -47 151 -3 14 -8 34 -11 45 -10 28 -10 32 -12 61 0 14 -4 23 -9 21
-4 -3 -8 15 -9 39 -1 24 -5 49 -9 56 -5 7 -9 24 -10 38 -4 66 -4 64 -16 52 -7
-7 -17 -12 -23 -12 -30 0 58 41 119 55 90 21 271 87 359 131 527 265 764 703
615 1139 -11 33 -24 68 -29 77 -11 21 -6 24 56 32 93 11 130 16 200 26 39 5
90 12 115 15 25 3 56 8 70 10 14 2 50 7 80 10 30 4 66 8 80 10 31 4 107 15
140 20 14 2 48 7 76 10 78 9 97 13 105 27 13 20 -8 25 -121 33 -58 3 -121 8
-140 10 -19 2 -78 7 -130 10 -52 4 -115 8 -140 10 -25 2 -88 7 -140 10 -52 3
-106 8 -120 10 -14 3 -44 7 -67 10 -98 11 -198 59 -270 127 -85 82 -162 135
-288 197 -257 126 -505 180 -903 194 -30 1 -54 2 -55 1z m-1822 -1004 c3 -5 1
-10 -4 -10 -6 0 -11 5 -11 10 0 6 2 10 4 10 3 0 8 -4 11 -10z m59 -18 c3 -5
-1 -9 -9 -9 -8 0 -12 4 -9 9 3 4 7 8 9 8 2 0 6 -4 9 -8z m1 -31 c3 -5 2 -12
-3 -15 -5 -3 -9 1 -9 9 0 17 3 19 12 6z m-95 -31 c0 -5 -2 -10 -4 -10 -3 0 -8
5 -11 10 -3 6 -1 10 4 10 6 0 11 -4 11 -10z m135 -19 c3 -5 2 -12 -3 -15 -5
-3 -9 1 -9 9 0 17 3 19 12 6z m-120 -40 c3 -5 2 -12 -3 -15 -5 -3 -9 1 -9 9 0
17 3 19 12 6z m82 -6 c0 -8 -4 -12 -9 -9 -5 3 -6 10 -3 15 9 13 12 11 12 -6z
m-182 -15 c3 -5 1 -10 -4 -10 -6 0 -11 5 -11 10 0 6 2 10 4 10 3 0 8 -4 11
-10z m35 -56 c0 -8 -19 -13 -24 -6 -3 5 1 9 9 9 8 0 15 -2 15 -3z m90 -18 c0
-3 -4 -8 -10 -11 -5 -3 -10 -1 -10 4 0 6 5 11 10 11 6 0 10 -2 10 -4z m-200
-46 c0 -5 -2 -10 -4 -10 -3 0 -8 5 -11 10 -3 6 -1 10 4 10 6 0 11 -4 11 -10z
m0 -40 c0 -5 -2 -10 -4 -10 -3 0 -8 5 -11 10 -3 6 -1 10 4 10 6 0 11 -4 11
-10z m40 0 c0 -5 -5 -10 -11 -10 -5 0 -7 5 -4 10 3 6 8 10 11 10 2 0 4 -4 4
-10z m-80 -34 c0 -3 -4 -8 -10 -11 -5 -3 -10 -1 -10 4 0 6 5 11 10 11 6 0 10
-2 10 -4z m-5 -46 c3 -5 1 -10 -4 -10 -6 0 -11 5 -11 10 0 6 2 10 4 10 3 0 8
-4 11 -10z m30 -60 c-3 -5 -12 -10 -18 -10 -7 0 -6 4 3 10 19 12 23 12 15 0z
m-90 -29 c3 -5 2 -12 -3 -15 -5 -3 -9 1 -9 9 0 17 3 19 12 6z m39 -9 c3 -5 -1
-9 -9 -9 -8 0 -12 4 -9 9 3 4 7 8 9 8 2 0 6 -4 9 -8z m2261 -702 c3 -5 1 -10
-4 -10 -6 0 -11 5 -11 10 0 6 2 10 4 10 3 0 8 -4 11 -10z m45 0 c0 -5 -2 -10
-4 -10 -3 0 -8 5 -11 10 -3 6 -1 10 4 10 6 0 11 -4 11 -10z m120 0 c0 -5 -2
-10 -4 -10 -3 0 -8 5 -11 10 -3 6 -1 10 4 10 6 0 11 -4 11 -10z m40 0 c0 -5
-5 -10 -11 -10 -5 0 -7 5 -4 10 3 6 8 10 11 10 2 0 4 -4 4 -10z m-180 -40 c0
-5 -5 -10 -11 -10 -5 0 -7 5 -4 10 3 6 8 10 11 10 2 0 4 -4 4 -10z m-30 -16
c0 -8 -19 -13 -24 -6 -3 5 1 9 9 9 8 0 15 -2 15 -3z m-15 -73 c3 -5 2 -12 -3
-15 -5 -3 -9 1 -9 9 0 17 3 19 12 6z m203 -16 c-3 -3 -9 2 -12 12 -6 14 -5 15
5 6 7 -7 10 -15 7 -18z m42 5 c0 -5 -2 -10 -4 -10 -3 0 -8 5 -11 10 -3 6 -1
10 4 10 6 0 11 -4 11 -10z m-285 -48 c-3 -3 -11 0 -18 7 -9 10 -8 11 6 5 10
-3 15 -9 12 -12z m325 -12 c0 -5 -2 -10 -4 -10 -3 0 -8 5 -11 10 -3 6 -1 10 4
10 6 0 11 -4 11 -10z m-280 -20 c0 -5 -5 -10 -11 -10 -5 0 -7 5 -4 10 3 6 8
10 11 10 2 0 4 -4 4 -10z m-100 -14 c0 -3 -4 -8 -10 -11 -5 -3 -10 -1 -10 4 0
6 5 11 10 11 6 0 10 -2 10 -4z m0 -46 c0 -5 -2 -10 -4 -10 -3 0 -8 5 -11 10
-3 6 -1 10 4 10 6 0 11 -4 11 -10z m334 2 c3 -5 -1 -9 -9 -9 -8 0 -12 4 -9 9
3 4 7 8 9 8 2 0 6 -4 9 -8z m21 -42 c3 -5 1 -10 -4 -10 -6 0 -11 5 -11 10 0 6
2 10 4 10 3 0 8 -4 11 -10z m45 6 c0 -3 -4 -8 -10 -11 -5 -3 -10 -1 -10 4 0 6
5 11 10 11 6 0 10 -2 10 -4z m-40 -46 c0 -5 -2 -10 -4 -10 -3 0 -8 5 -11 10
-3 6 -1 10 4 10 6 0 11 -4 11 -10z m-340 -58 c0 -5 -7 -9 -15 -9 -8 0 -12 4
-9 9 3 4 9 8 15 8 5 0 9 -4 9 -8z m-100 -22 c0 -5 -5 -10 -11 -10 -5 0 -7 5
-4 10 3 6 8 10 11 10 2 0 4 -4 4 -10z m40 0 c0 -5 -2 -10 -4 -10 -3 0 -8 5
-11 10 -3 6 -1 10 4 10 6 0 11 -4 11 -10z m440 6 c0 -3 -4 -8 -10 -11 -5 -3
-10 -1 -10 4 0 6 5 11 10 11 6 0 10 -2 10 -4z m35 -6 c3 -5 1 -10 -4 -10 -6 0
-11 5 -11 10 0 6 2 10 4 10 3 0 8 -4 11 -10z m-515 -40 c0 -5 -5 -10 -11 -10
-5 0 -7 5 -4 10 3 6 8 10 11 10 2 0 4 -4 4 -10z m470 -14 c0 -2 -8 -10 -17
-17 -16 -13 -17 -12 -4 4 13 16 21 21 21 13z m-496 -44 c3 -5 -1 -9 -9 -9 -8
0 -12 4 -9 9 3 4 7 8 9 8 2 0 6 -4 9 -8z m477 -15 c-10 -9 -11 -8 -5 6 3 10 9
15 12 12 3 -3 0 -11 -7 -18z m49 13 c0 -5 -5 -10 -11 -10 -5 0 -7 5 -4 10 3 6
8 10 11 10 2 0 4 -4 4 -10z m-60 -60 c0 -5 -2 -10 -4 -10 -3 0 -8 5 -11 10 -3
6 -1 10 4 10 6 0 11 -4 11 -10z m-490 -16 c0 -8 -19 -13 -24 -6 -3 5 1 9 9 9
8 0 15 -2 15 -3z m490 -18 c0 -3 -4 -8 -10 -11 -5 -3 -10 -1 -10 4 0 6 5 11
10 11 6 0 10 -2 10 -4z m120 0 c0 -3 -4 -8 -10 -11 -5 -3 -10 -1 -10 4 0 6 5
11 10 11 6 0 10 -2 10 -4z m-65 -34 c-3 -3 -11 0 -18 7 -9 10 -8 11 6 5 10 -3
15 -9 12 -12z m-575 -6 c0 -3 -4 -8 -10 -11 -5 -3 -10 -1 -10 4 0 6 5 11 10
11 6 0 10 -2 10 -4z m35 -6 c3 -5 1 -10 -4 -10 -6 0 -11 5 -11 10 0 6 2 10 4
10 3 0 8 -4 11 -10z m545 -20 c0 -5 -5 -10 -11 -10 -5 0 -7 5 -4 10 3 6 8 10
11 10 2 0 4 -4 4 -10z m-580 -20 c0 -5 -5 -10 -11 -10 -5 0 -7 5 -4 10 3 6 8
10 11 10 2 0 4 -4 4 -10z m-5 -40 c3 -5 1 -10 -4 -10 -6 0 -11 5 -11 10 0 6 2
10 4 10 3 0 8 -4 11 -10z m485 6 c0 -3 -4 -8 -10 -11 -5 -3 -10 -1 -10 4 0 6
5 11 10 11 6 0 10 -2 10 -4z m35 -6 c3 -5 1 -10 -4 -10 -6 0 -11 5 -11 10 0 6
2 10 4 10 3 0 8 -4 11 -10z m440 -40 c3 -5 1 -10 -4 -10 -6 0 -11 5 -11 10 0
6 2 10 4 10 3 0 8 -4 11 -10z m-355 -34 c0 -3 -4 -8 -10 -11 -5 -3 -10 -1 -10
4 0 6 5 11 10 11 6 0 10 -2 10 -4z m-745 -46 c3 -5 1 -10 -4 -10 -6 0 -11 5
-11 10 0 6 2 10 4 10 3 0 8 -4 11 -10z m65 6 c0 -3 -4 -8 -10 -11 -5 -3 -10
-1 -10 4 0 6 5 11 10 11 6 0 10 -2 10 -4z m40 -6 c0 -5 -2 -10 -4 -10 -3 0 -8
5 -11 10 -3 6 -1 10 4 10 6 0 11 -4 11 -10z m595 0 c3 -5 1 -10 -4 -10 -6 0
-11 5 -11 10 0 6 2 10 4 10 3 0 8 -4 11 -10z m45 6 c0 -3 -4 -8 -10 -11 -5 -3
-10 -1 -10 4 0 6 5 11 10 11 6 0 10 -2 10 -4z m-705 -55 c3 -5 2 -12 -3 -15
-5 -3 -9 1 -9 9 0 17 3 19 12 6z m-25 -7 c0 -8 -19 -13 -24 -6 -3 5 1 9 9 9 8
0 15 -2 15 -3z m-90 -124 c0 -5 -4 -10 -10 -10 -5 0 -10 5 -10 10 0 6 5 10 10
10 6 0 10 -4 10 -10z m55 -20 c3 -5 1 -10 -4 -10 -6 0 -11 5 -11 10 0 6 2 10
4 10 3 0 8 -4 11 -10z m45 0 c0 -5 -5 -10 -11 -10 -5 0 -7 5 -4 10 3 6 8 10
11 10 2 0 4 -4 4 -10z m-100 -20 c0 -5 -5 -10 -11 -10 -5 0 -7 5 -4 10 3 6 8
10 11 10 2 0 4 -4 4 -10z m-323 -75 c0 -8 -4 -12 -9 -9 -5 3 -6 10 -3 15 9 13
12 11 12 -6z m-42 -4 c3 -5 2 -12 -3 -15 -5 -3 -9 1 -9 9 0 17 3 19 12 6z
m100 -21 c3 -5 1 -10 -4 -10 -6 0 -11 5 -11 10 0 6 2 10 4 10 3 0 8 -4 11 -10z
m45 6 c0 -3 -4 -8 -10 -11 -5 -3 -10 -1 -10 4 0 6 5 11 10 11 6 0 10 -2 10 -4z
m40 -6 c0 -5 -2 -10 -4 -10 -3 0 -8 5 -11 10 -3 6 -1 10 4 10 6 0 11 -4 11
-10z m35 0 c3 -5 1 -10 -4 -10 -6 0 -11 5 -11 10 0 6 2 10 4 10 3 0 8 -4 11
-10z m-174 -17 c13 -16 12 -17 -3 -4 -17 13 -22 21 -14 21 2 0 10 -8 17 -17z
m-121 3 c0 -2 -7 -7 -16 -10 -8 -3 -12 -2 -9 4 6 10 25 14 25 6z"/>
</g>
</svg>
